<svg xmlns="http://www.w3.org/2000/svg" width="20" height="20" viewBox="0 0 28 28" fill="none">
  <title>AI 助手</title>
  <defs>
    <linearGradient id="bot" x1="4" y1="7" x2="24" y2="25" gradientUnits="userSpaceOnUse">
      <stop stop-color="#16C8F4"/>
      <stop offset=".52" stop-color="#2468F2"/>
      <stop offset="1" stop-color="#7C3AED"/>
    </linearGradient>
    <linearGradient id="eye" x1="10" y1="13" x2="17" y2="19" gradientUnits="userSpaceOnUse">
      <stop stop-color="#02D4E9"/>
      <stop offset="1" stop-color="#315CF5"/>
    </linearGradient>
  </defs>
  <rect x="1.5" y="12" width="3.5" height="8" rx="1.75" fill="url(#bot)"/>
  <rect x="23" y="12" width="3.5" height="8" rx="1.75" fill="url(#bot)"/>
  <path d="M14 8V5.5" stroke="url(#bot)" stroke-width="2" stroke-linecap="round"/>
  <circle cx="14" cy="4" r="2" fill="url(#bot)"/>
  <rect x="3.5" y="8" width="21" height="17" rx="5.5" fill="url(#bot)"/>
  <rect x="6.5" y="11" width="15" height="10.5" rx="3.5" fill="#F5F8FF"/>
  <rect x="9.25" y="14" width="2.75" height="4.5" rx="1.375" fill="url(#eye)"/>
  <rect x="16" y="14" width="2.75" height="4.5" rx="1.375" fill="url(#eye)"/>
  <circle cx="10.2" cy="14.9" r=".55" fill="#BFF8FF"/>
  <circle cx="16.95" cy="14.9" r=".55" fill="#BFF8FF"/>
  <path d="M7.8 12.8c1.4-1.2 3.1-1.4 4.5-1.4" stroke="white" stroke-opacity=".55" stroke-width="1" stroke-linecap="round"/>
</svg>
